<svg width="77" height="58" viewBox="0 0 77 58" fill="none" xmlns="http://www.w3.org/2000/svg">
<path fill-rule="evenodd" clip-rule="evenodd" d="M54.556 47H57V12.777H54.556V47Z" fill="#66BB6A"/>
<path fill-rule="evenodd" clip-rule="evenodd" d="M75.2617 7.05267H63.8437C59.0327 7.05267 55.1307 10.9527 55.1307 15.7657V19.1307H55.1977C55.5407 14.6327 59.2587 11.0777 63.8437 11.0777H75.1947C75.2117 10.8567 75.2617 10.6437 75.2617 10.4167V7.05267Z" fill="#66BB6A"/>
<path fill-rule="evenodd" clip-rule="evenodd" d="M75.2617 7.05267H63.8437C59.0327 7.05267 55.1307 10.9527 55.1307 15.7657V19.1307H55.1977C55.5407 14.6327 59.2587 11.0777 63.8437 11.0777H75.1947C75.2117 10.8567 75.2617 10.6437 75.2617 10.4167V7.05267Z" stroke="white" stroke-width="2" stroke-linecap="round" stroke-linejoin="round"/>
<path fill-rule="evenodd" clip-rule="evenodd" d="M55.1973 19.1309H66.5483C71.1343 19.1309 74.8503 15.5759 75.1943 11.0779H63.8433C59.2593 11.0779 55.5413 14.6329 55.1973 19.1309Z" fill="#66BB6A"/>
<path fill-rule="evenodd" clip-rule="evenodd" d="M55.1973 19.1309H66.5483C71.1343 19.1309 74.8503 15.5759 75.1943 11.0779H63.8433C59.2593 11.0779 55.5413 14.6329 55.1973 19.1309Z" stroke="white" stroke-width="2" stroke-linecap="round" stroke-linejoin="round"/>
<path fill-rule="evenodd" clip-rule="evenodd" d="M55.1309 13.0781H43.7139C38.9019 13.0781 34.9999 9.17712 34.9999 4.36512V1.00012H35.0669C35.4099 5.49812 39.1279 9.05312 43.7139 9.05312H55.0639C55.0809 9.27412 55.1309 9.48712 55.1309 9.71412V13.0781Z" fill="#66BB6A"/>
<path fill-rule="evenodd" clip-rule="evenodd" d="M55.1309 13.0781H43.7139C38.9019 13.0781 34.9999 9.17712 34.9999 4.36512V1.00012H35.0669C35.4099 5.49812 39.1279 9.05312 43.7139 9.05312H55.0639C55.0809 9.27412 55.1309 9.48712 55.1309 9.71412V13.0781Z" stroke="white" stroke-width="2" stroke-linecap="round" stroke-linejoin="round"/>
<path fill-rule="evenodd" clip-rule="evenodd" d="M35.0669 1H46.4179C51.0029 1 54.7199 4.555 55.0639 9.053H43.7129C39.1279 9.053 35.4099 5.498 35.0669 1Z" fill="#66BB6A"/>
<path fill-rule="evenodd" clip-rule="evenodd" d="M35.0669 1H46.4179C51.0029 1 54.7199 4.555 55.0639 9.053H43.7129C39.1279 9.053 35.4099 5.498 35.0669 1Z" stroke="white" stroke-width="2" stroke-linecap="round" stroke-linejoin="round"/>
<path fill-rule="evenodd" clip-rule="evenodd" d="M57.3633 36.3242C57.3633 33.4452 55.2193 31.0162 52.3633 30.6602L37.2063 28.7652L1.00031 57.0002H29.0003L37.2063 46.4022" fill="#66BB6A"/>
<path d="M57.3633 36.3242V36.3242C57.3633 33.4452 55.2193 31.0162 52.3633 30.6602L39.3723 29.0362C37.9863 28.8622 36.5873 29.2482 35.4853 30.1072L1.00031 57.0002" stroke="white" stroke-width="2" stroke-linecap="round" stroke-linejoin="round"/>
<path fill-rule="evenodd" clip-rule="evenodd" d="M66.9766 28.7656L62.8436 29.2566C62.3106 29.3206 61.7976 29.4956 61.3386 29.7736L56.5806 32.6476V38.9996H60.9996L66.9766 28.7656Z" fill="#66BB6A"/>
<path fill-rule="evenodd" clip-rule="evenodd" d="M66.9766 28.7656L62.8436 29.2566C62.3106 29.3206 61.7976 29.4956 61.3386 29.7736L56.5806 32.6476V38.9996H60.9996L66.9766 28.7656Z" stroke="white" stroke-width="2" stroke-linecap="round" stroke-linejoin="round"/>
<path fill-rule="evenodd" clip-rule="evenodd" d="M44.7651 36.3242H59.8831L68.5301 27.6762C69.3851 26.8222 70.6891 26.6102 71.7691 27.1502L75.0001 28.7652L59.8831 46.4022H37.2061L29.0001 57.0002" fill="#66BB6A"/>
<path d="M44.7651 36.3242H59.8831L68.5301 27.6762C69.3851 26.8222 70.6891 26.6102 71.7691 27.1502L75.0001 28.7652L59.8831 46.4022H37.2061L29.0001 57.0002" stroke="white" stroke-width="2" stroke-linecap="round" stroke-linejoin="round"/>
</svg>
