<svg width="32" height="40" viewBox="0 0 32 40" fill="none" xmlns="http://www.w3.org/2000/svg">
<path d="M16 26C15.683 26 15.385 25.85 15.197 25.596C14.862 25.145 7 14.477 7 9C7 4.038 11.038 0 16 0C20.963 0 25 4.038 25 9C25 14.477 17.138 25.145 16.803 25.596C16.615 25.85 16.317 26 16 26ZM16 2C12.14 2 9 5.14 9 9C9 12.575 13.493 19.717 16 23.288C18.507 19.716 23 12.572 23 9C23 5.14 19.859 2 16 2Z" fill="#839C94"/>
<path d="M16 13C13.794 13 12 11.206 12 9C12 6.794 13.794 5 16 5C18.206 5 20 6.794 20 9C20 11.206 18.206 13 16 13ZM16 7C14.897 7 14 7.897 14 9C14 10.103 14.897 11 16 11C17.103 11 18 10.103 18 9C18 7.897 17.103 7 16 7Z" fill="#839C94"/>
<path d="M16 32C9.698 32 3 30.048 3 26.429C3 24.634 4.686 23.08 7.746 22.052C8.27 21.879 8.837 22.158 9.012 22.682C9.188 23.205 8.906 23.773 8.383 23.949C5.886 24.786 5 25.809 5 26.429C5 27.885 9.285 30 16 30C22.715 30 27 27.885 27 26.429C27 25.809 26.113 24.786 23.616 23.948C23.093 23.771 22.81 23.205 22.986 22.681C23.163 22.158 23.73 21.877 24.253 22.051C27.314 23.08 29 24.635 29 26.429C29 30.048 22.302 32 16 32Z" fill="#839C94"/>
</svg>
